# xmcd CD database file
#
# Track frame offsets:
#	150
#	20150
#	40225
#	57087
#	73225
#	93300
#
# Disc length: 1487 seconds
#
# Revision: 0
# Processed by: cddbd v1.5.1PL0 Copyright (c) Steve Scherf et al.
# Submitted via: CDex 1.51
#
DISCID=4f05cd06
DTITLE=GERRY DeVEAUX - BAHAMA RHYTHM
DYEAR=1900
DGENRE=Pop
TTITLE0=COME INTO MY LIFE(Make it better)
TTITLE1=NEVER GIVING UP
TTITLE2=I`LL TAKE YOU THERE
TTITLE3=BAHAMA RHYTHM
TTITLE4=THERE GOES MY HEART
TTITLE5=NEVER GIVING UP
EXTD=
EXTT0=
EXTT1=
EXTT2=
EXTT3=
EXTT4=
EXTT5=
PLAYORDER=
